<?xml version="1.0" encoding="utf-8"?>
<!-- Generator: Adobe Illustrator 22.1.0, SVG Export Plug-In . SVG Version: 6.00 Build 0)  -->
<svg version="1.1" xmlns="http://www.w3.org/2000/svg" xmlns:xlink="http://www.w3.org/1999/xlink" x="0px" y="0px"
	 viewBox="0 0 96 96" style="enable-background:new 0 0 96 96;" xml:space="preserve">
<style type="text/css">
	.st0{fill:#6A422A;}
	.st1{fill:#FFFFFF;}
	.st2{fill-rule:evenodd;clip-rule:evenodd;fill:#FFFFFF;}
</style>
<g id="Background">
</g>
<g id="Layer_1">
	<g id="XMLID_1419_">
		<path id="XMLID_1421_" class="st0" d="M48,96L48,96C21.5,96,0,74.5,0,48l0,0C0,21.5,21.5,0,48,0l0,0c26.5,0,48,21.5,48,48l0,0
			C96,74.5,74.5,96,48,96z"/>
		<path id="XMLID_1420_" class="st1" d="M40.7,77h11.7V47.8h8.2l0.9-9.8h-9c0,0,0-3.7,0-5.6c0-2.3,0.5-3.2,2.7-3.2
			c1.8,0,6.3,0,6.3,0V19c0,0-6.7,0-8.1,0c-8.7,0-12.6,3.8-12.6,11.2c0,6.4,0,7.8,0,7.8h-6.1v9.9h6.1V77z"/>
	</g>
</g>
</svg>
