<?xml version="1.0" encoding="utf-8"?>
<!-- Generator: Adobe Illustrator 22.1.0, SVG Export Plug-In . SVG Version: 6.00 Build 0)  -->
<svg version="1.1" xmlns="http://www.w3.org/2000/svg" xmlns:xlink="http://www.w3.org/1999/xlink" x="0px" y="0px"
	 viewBox="0 0 97.2 97.2" style="enable-background:new 0 0 97.2 97.2;" xml:space="preserve">
<style type="text/css">
	.st0{fill:#6A422A;}
	.st1{fill:#FFFFFF;}
	.st2{fill-rule:evenodd;clip-rule:evenodd;fill:#FFFFFF;}
</style>
<g id="Background">
</g>
<g id="Layer_1">
	<g id="XMLID_1346_">
		<path id="XMLID_1418_" class="st0" d="M48.6,97.2L48.6,97.2C21.7,97.2,0,75.4,0,48.6l0,0C0,21.7,21.7,0,48.6,0h0
			c26.8,0,48.6,21.7,48.6,48.6l0,0C97.2,75.4,75.4,97.2,48.6,97.2z"/>
		<g id="XMLID_1347_">
			<path id="XMLID_1352_" class="st1" d="M48.6,26.7c7.1,0,8,0,10.8,0.2c2.6,0.1,4,0.6,4.9,0.9c1.2,0.5,2.1,1.1,3.1,2
				c0.9,0.9,1.5,1.8,2,3.1c0.4,0.9,0.8,2.3,0.9,4.9c0.1,2.8,0.2,3.7,0.2,10.8c0,7.1,0,8-0.2,10.8c-0.1,2.6-0.6,4-0.9,4.9
				c-0.5,1.2-1.1,2.1-2,3.1c-0.9,0.9-1.8,1.5-3.1,2c-0.9,0.4-2.3,0.8-4.9,0.9c-2.8,0.1-3.7,0.2-10.8,0.2c-7.1,0-8,0-10.8-0.2
				c-2.6-0.1-4-0.6-4.9-0.9c-1.2-0.5-2.1-1.1-3.1-2c-0.9-0.9-1.5-1.8-2-3.1c-0.4-0.9-0.8-2.3-0.9-4.9c-0.1-2.8-0.2-3.7-0.2-10.8
				c0-7.1,0-8,0.2-10.8c0.1-2.6,0.6-4,0.9-4.9c0.5-1.2,1.1-2.1,2-3.1c0.9-0.9,1.8-1.5,3.1-2c0.9-0.4,2.3-0.8,4.9-0.9
				C40.6,26.8,41.5,26.7,48.6,26.7 M48.6,21.9c-7.2,0-8.1,0-11,0.2c-2.8,0.1-4.8,0.6-6.5,1.2c-1.8,0.7-3.2,1.6-4.7,3.1
				c-1.5,1.5-2.4,3-3.1,4.7c-0.7,1.7-1.1,3.6-1.2,6.5c-0.1,2.8-0.2,3.7-0.2,11s0,8.1,0.2,11c0.1,2.8,0.6,4.8,1.2,6.5
				c0.7,1.8,1.6,3.2,3.1,4.7c1.5,1.5,3,2.4,4.7,3.1c1.7,0.7,3.6,1.1,6.5,1.2c2.8,0.1,3.7,0.2,11,0.2c7.2,0,8.1,0,11-0.2
				c2.8-0.1,4.8-0.6,6.5-1.2c1.8-0.7,3.2-1.6,4.7-3.1c1.5-1.5,2.4-3,3.1-4.7c0.7-1.7,1.1-3.6,1.2-6.5c0.1-2.8,0.2-3.7,0.2-11
				s0-8.1-0.2-11c-0.1-2.8-0.6-4.8-1.2-6.5c-0.7-1.8-1.6-3.2-3.1-4.7c-1.5-1.5-3-2.4-4.7-3.1c-1.7-0.7-3.6-1.1-6.5-1.2
				C56.7,22,55.8,21.9,48.6,21.9"/>
			<path id="XMLID_1349_" class="st1" d="M48.6,34.9c-7.6,0-13.7,6.1-13.7,13.7c0,7.6,6.1,13.7,13.7,13.7c7.6,0,13.7-6.1,13.7-13.7
				C62.3,41,56.1,34.9,48.6,34.9 M48.6,57.5c-4.9,0-8.9-4-8.9-8.9c0-4.9,4-8.9,8.9-8.9c4.9,0,8.9,4,8.9,8.9
				C57.5,53.5,53.5,57.5,48.6,57.5"/>
			<path id="XMLID_1348_" class="st1" d="M66,34.4c0,1.8-1.4,3.2-3.2,3.2c-1.8,0-3.2-1.4-3.2-3.2c0-1.8,1.4-3.2,3.2-3.2
				C64.6,31.2,66,32.6,66,34.4"/>
		</g>
	</g>
</g>
</svg>
