<?xml version="1.0" encoding="utf-8"?>
<!-- Generator: Adobe Illustrator 22.1.0, SVG Export Plug-In . SVG Version: 6.00 Build 0)  -->
<svg version="1.1" xmlns="http://www.w3.org/2000/svg" xmlns:xlink="http://www.w3.org/1999/xlink" x="0px" y="0px"
	 viewBox="0 0 97.2 97.2" style="enable-background:new 0 0 97.2 97.2;" xml:space="preserve">
<style type="text/css">
	.st0{fill:#6A422A;}
	.st1{fill:#FFFFFF;}
	.st2{fill-rule:evenodd;clip-rule:evenodd;fill:#FFFFFF;}
</style>
<g id="Background">
</g>
<g id="Layer_1">
	<g>
		
			<ellipse transform="matrix(0.1163 -0.9932 0.9932 0.1163 -5.3204 91.1744)" class="st0" cx="48.6" cy="48.6" rx="48.6" ry="48.6"/>
		<g>
			<path class="st1" d="M69.8,68.6c1.2,0,2.2-0.4,3-1.1L58.2,52.8c-0.4,0.3-0.7,0.5-1,0.7c-1.1,0.8-2,1.4-2.7,1.9
				c-0.7,0.5-1.6,0.9-2.7,1.4c-1.1,0.5-2.2,0.7-3.2,0.7h0h0c-1,0-2-0.2-3.2-0.7c-1.1-0.5-2-0.9-2.7-1.4C42,55,41.1,54.3,40,53.5
				c-0.3-0.2-0.6-0.5-1-0.7L24.3,67.5c0.9,0.8,1.9,1.1,3,1.1H69.8z"/>
			<path class="st1" d="M26.2,43.6c-1.1-0.7-2.1-1.6-2.9-2.5v22.3l12.9-12.9C33.6,48.6,30.3,46.4,26.2,43.6z"/>
			<path class="st1" d="M71,43.6c-3.9,2.7-7.3,5-10,6.9l12.9,12.9V41.1C73,42,72.1,42.8,71,43.6z"/>
			<path class="st1" d="M69.8,28.5H27.3c-1.5,0-2.6,0.5-3.4,1.5c-0.8,1-1.2,2.3-1.2,3.8c0,1.2,0.5,2.5,1.6,3.9
				c1.1,1.4,2.2,2.5,3.4,3.3c0.7,0.5,2.6,1.8,5.9,4.1c1.8,1.2,3.3,2.3,4.7,3.2c1.1,0.8,2.1,1.5,2.9,2c0.1,0.1,0.2,0.2,0.4,0.3
				c0.2,0.1,0.5,0.3,0.8,0.6c0.6,0.5,1.1,0.8,1.6,1.1c0.4,0.3,0.9,0.6,1.5,0.9c0.6,0.3,1.1,0.6,1.7,0.8c0.5,0.2,1,0.3,1.4,0.3h0h0
				c0.4,0,0.9-0.1,1.4-0.3c0.5-0.2,1.1-0.4,1.7-0.8c0.6-0.3,1.1-0.7,1.5-0.9c0.4-0.3,0.9-0.6,1.6-1.1c0.3-0.2,0.6-0.4,0.8-0.6
				c0.2-0.1,0.3-0.2,0.4-0.3c0.6-0.4,1.6-1.1,2.9-2c2.4-1.7,5.9-4.1,10.6-7.4c1.4-1,2.6-2.2,3.5-3.6c0.9-1.4,1.4-2.8,1.4-4.4
				c0-1.3-0.5-2.4-1.4-3.3C72.2,29,71.1,28.5,69.8,28.5z"/>
		</g>
	</g>
</g>
</svg>
