<?xml version="1.0" encoding="utf-8"?>
<!-- Generator: Adobe Illustrator 22.1.0, SVG Export Plug-In . SVG Version: 6.00 Build 0)  -->
<svg version="1.1" xmlns="http://www.w3.org/2000/svg" xmlns:xlink="http://www.w3.org/1999/xlink" x="0px" y="0px"
	 viewBox="0 0 95.4 95.4" style="enable-background:new 0 0 95.4 95.4;" xml:space="preserve">
<style type="text/css">
	.st0{fill:#6A422A;}
	.st1{fill:#FFFFFF;}
	.st2{fill-rule:evenodd;clip-rule:evenodd;fill:#FFFFFF;}
</style>
<g id="Background">
</g>
<g id="Layer_1">
	<g id="XMLID_110_">
		<path id="XMLID_1108_" class="st0" d="M47.7,95.4L47.7,95.4C21.4,95.4,0,74,0,47.7v0C0,21.4,21.4,0,47.7,0l0,0
			C74,0,95.4,21.4,95.4,47.7v0C95.4,74,74,95.4,47.7,95.4z"/>
		<g id="XMLID_115_">
			<path id="XMLID_118_" class="st2" d="M73.9,46.4c-0.3-13.8-11.7-24.8-25.7-24.8c-13.8,0-25.1,10.8-25.7,24.4c0,0.4,0,0.7,0,1.1
				c0,4.8,1.3,9.3,3.7,13.2l-4.6,13.7l14.2-4.5c3.7,2,7.9,3.2,12.4,3.2c14.2,0,25.7-11.4,25.7-25.5C73.9,46.8,73.9,46.6,73.9,46.4z
				 M48.2,68.5c-4.4,0-8.5-1.3-11.9-3.5L28,67.6l2.7-8c-2.6-3.5-4.1-7.9-4.1-12.6c0-0.7,0-1.4,0.1-2.1C27.7,34.1,37,25.6,48.2,25.6
				c11.3,0,20.7,8.7,21.5,19.8c0,0.6,0.1,1.1,0.1,1.7C69.8,58.8,60.1,68.5,48.2,68.5z"/>
			<path id="XMLID_117_" class="st2" d="M59.9,52.2c-0.6-0.3-3.7-1.8-4.3-2c-0.6-0.2-1-0.3-1.4,0.3c-0.4,0.6-1.6,2-2,2.4
				c-0.4,0.4-0.7,0.5-1.4,0.2c-0.6-0.3-2.7-1-5.1-3.1c-1.9-1.6-3.1-3.7-3.5-4.3c-0.4-0.6,0-1,0.3-1.3c0.3-0.3,0.6-0.7,0.9-1.1
				c0.1-0.1,0.2-0.2,0.2-0.3c0.1-0.2,0.3-0.4,0.4-0.7c0.2-0.4,0.1-0.8,0-1.1s-1.4-3.4-1.9-4.6c-0.5-1.3-1-1-1.4-1
				c-0.4,0-0.8-0.1-1.2-0.1c-0.4,0-1.1,0.2-1.7,0.8c-0.6,0.6-2.2,2.1-2.2,5.2c0,0.7,0.1,1.4,0.3,2.1c0.6,2.2,2,4,2.2,4.3
				c0.3,0.4,4.4,6.9,10.8,9.4c6.4,2.5,6.4,1.7,7.6,1.6c1.2-0.1,3.7-1.5,4.2-3c0.5-1.5,0.5-2.7,0.4-3C61,52.6,60.6,52.5,59.9,52.2z"
				/>
		</g>
	</g>
</g>
</svg>
